<svg width="509" height="71" viewBox="0 0 509 71" fill="none" xmlns="http://www.w3.org/2000/svg">
<path fill-rule="evenodd" clip-rule="evenodd" d="M91.5845 67.1447C95.9288 65.1006 97.3421 63.7757 97.7505 57.7714C98.211 50.5412 98.3761 44.2196 98.3761 35.0006V23.8191C98.3761 14.6176 98.211 8.2901 97.7505 1.05703C99.4766 1.223 101.6 1.46178 104.215 1.46178C106.824 1.46178 108.956 1.22009 110.691 1.05703C110.219 8.2901 110.056 14.6176 110.056 23.8191V35.0006C110.056 39.4558 110.219 44.8718 110.219 49.9647C110.219 63.1234 104.368 69.0403 92.7719 71L91.5845 67.1447ZM124.668 23.8191C124.668 14.6176 124.514 8.2901 124.036 1.05703C125.762 1.223 127.908 1.46178 130.509 1.46178C133.119 1.46178 135.25 1.22009 136.985 1.05703C136.516 8.2901 136.351 14.6176 136.351 23.8191V35.0006C136.351 44.2196 136.516 50.5412 136.985 57.7714C135.25 57.6054 133.119 57.3579 130.509 57.3579C127.908 57.3579 125.762 57.6054 124.036 57.7714C124.514 50.5412 124.668 44.2196 124.668 35.0006V23.8191ZM150.971 1.05703C152.134 1.31616 153.321 1.45182 154.513 1.46178C155.71 1.45133 156.903 1.31569 158.072 1.05703C169.44 14.1197 180.741 27.1066 192.34 40.1808C192.34 27.1095 192.34 4.76383 191.784 1.05703C192.974 1.30745 194.153 1.46178 195.343 1.46178C196.525 1.46178 197.715 1.30745 198.903 1.05703C197.637 24.9896 197.637 35.912 197.637 57.7743C196.575 57.5182 195.488 57.3795 194.396 57.3608C193.293 57.3608 192.265 57.5326 191.323 57.7743C180.503 44.4642 168.965 31.1482 156.809 17.8206C156.647 23.9938 156.647 30.8134 156.647 36.9836C156.647 50.1423 156.893 54.7431 157.128 57.7772C155.908 57.5246 154.667 57.3862 153.421 57.3637C152.234 57.3637 150.977 57.5355 149.786 57.7772C150.171 55.4041 151.37 34.1969 151.37 17.4275C151.365 10.0256 151.049 5.0026 150.971 1.05703ZM255.118 27.6045C255.118 45.527 246.811 53.7501 237.352 53.7501C228.507 53.7501 220.766 47.6672 220.766 30.1611C220.766 16.0153 227.088 4.68228 237.9 4.68228C248.077 4.67937 255.118 13.3888 255.118 27.6045ZM207.826 29.4128C207.826 49.9647 221.238 58.84 237.9 58.84C255.503 58.84 268.058 45.6144 268.058 29.3341C268.058 9.53055 254.871 0 238.14 0C219.81 0 207.826 13.2257 207.826 29.4128ZM284.172 20.4588C282.504 32.8691 281.803 45.3727 281.009 57.7714C279.79 57.5192 278.55 57.3808 277.305 57.3579C276.034 57.3579 274.843 57.5297 273.584 57.7714C276.903 38.8618 279.512 19.9667 281.719 1.05412C282.834 1.30454 283.851 1.45886 284.954 1.45886C286.02 1.44817 287.082 1.31233 288.117 1.05412C293.88 14.1167 300.591 28.7547 306.354 40.3468C312.598 28.0995 319.065 14.1167 324.759 1.05412C325.863 1.30454 327.044 1.45886 328.142 1.45886C329.262 1.44793 330.377 1.31218 331.467 1.05412C333.509 19.9667 336.28 46.1764 338.25 57.7714C336.128 57.513 333.994 57.3749 331.858 57.3579C329.732 57.3579 327.513 57.5297 325.307 57.7714C324.759 46.3511 323.418 32.3683 322.138 19.6318H321.985C316.07 32.2993 310.253 45.0129 304.535 57.7714C304.042 57.6778 303.542 57.6223 303.041 57.6054C302.554 57.6054 302.013 57.6928 301.535 57.7714C295.922 45.3698 290.245 32.8662 284.328 20.4588H284.172ZM391.082 27.6045C391.082 45.527 382.784 53.7501 373.32 53.7501C364.46 53.7501 356.739 47.6672 356.739 30.1611C356.739 16.0153 363.041 4.68228 373.873 4.68228C384.05 4.67937 391.082 13.3888 391.082 27.6045ZM343.781 29.4128C343.781 49.9647 357.205 58.84 373.876 58.84C391.479 58.84 404.031 45.6144 404.031 29.3341C404.031 9.53055 390.844 0 374.107 0C355.774 0 343.781 13.2257 343.781 29.4128ZM420.791 14.4545C420.791 11.333 420.791 8.37744 420.553 7.22143C417.46 7.22143 409.342 7.71062 404.613 8.28717C404.845 7.04963 404.998 5.89653 404.998 4.67646C404.998 3.43601 404.845 2.28583 404.613 1.05412C411.795 1.30454 416.838 1.45886 426.624 1.45886C436.427 1.45886 441.461 1.30454 448.169 1.05412C447.937 2.28583 447.772 3.43601 447.772 4.67646C447.772 5.89653 447.937 7.04671 448.169 8.28717C443.908 7.71062 435.793 7.22143 432.636 7.22143C432.465 8.37453 432.465 11.333 432.465 14.4545V35.0006C432.465 44.2196 432.636 50.5412 433.088 57.7714C431.368 57.6054 429.23 57.3579 426.624 57.3579C424.017 57.3579 421.894 57.6054 420.16 57.7714C420.629 50.5412 420.794 44.2196 420.794 35.0006V14.4545H420.791ZM496.057 27.6045C496.057 45.527 487.754 53.7501 478.283 53.7501C469.447 53.7501 461.697 47.6672 461.697 30.1611C461.697 16.0153 468.022 4.68228 478.836 4.68228C489.022 4.67937 496.057 13.3888 496.057 27.6045ZM448.756 29.4128C448.756 49.9647 462.18 58.84 478.839 58.84C496.454 58.84 509 45.6144 509 29.3341C509 9.53055 495.808 0 479.082 0C460.767 0 448.756 13.2257 448.756 29.4128ZM73.1416 1.1502L48.553 26.3786C48.553 26.3786 31.2193 23.4755 17.0107 32.377C7.81817 38.1192 -3.61307 47.8041 1.09612 56.1C5.34482 63.5806 22.6321 61.4869 31.6596 53.357C43.5716 42.6181 51.6374 30.9269 52.5295 31.3783C68.919 39.613 72.6493 58.3479 72.6493 58.3479H83.8227V1.1502H73.1416ZM20.6454 55.867C16.7905 58.7847 2.91493 59.4574 10.7028 45.1106C14.2043 38.69 22.0442 32.4091 27.5238 30.5163C39.7544 26.2709 46.2534 29.3487 46.2534 29.3487C46.2534 29.3487 26.5478 51.409 20.6454 55.867ZM71.8557 43.9604C71.8557 43.9604 62.892 30.7085 55.2374 29.1536C54.6379 29.0459 71.8557 10.5264 71.8557 10.5264V43.9604Z" fill="white"/>
</svg>
