<svg width="249" height="49" viewBox="0 0 249 49" fill="none" xmlns="http://www.w3.org/2000/svg">
<path d="M35.9372 42.6073H48.3007C50.1064 42.6073 51.7846 42.2664 53.3354 41.5845C54.9074 40.9026 56.2563 39.9863 57.3822 38.8356C58.5081 37.6636 59.4641 36.2998 60.2501 34.7443C61.0573 33.1887 61.6521 31.5373 62.0345 29.79C62.4381 28.0213 62.6399 26.2207 62.6399 24.3881C62.6399 22.0654 62.3001 19.8174 61.6203 17.6438C60.9617 15.4703 60.0058 13.4992 58.7524 11.7306C57.5203 9.96195 55.9058 8.5449 53.909 7.47945C51.9333 6.414 49.7453 5.88128 47.3448 5.88128H35.9372V42.6073ZM24.6888 0.0958904C27.493 0.372907 31.4017 0.511416 36.4151 0.511416C38.0296 0.511416 40.0583 0.447489 42.5013 0.319635C44.9655 0.170472 46.58 0.0958904 47.3448 0.0958904C50.51 0.0958904 53.4097 0.554034 56.0439 1.47032C58.6781 2.3653 60.898 3.59056 62.7037 5.14612C64.5094 6.70167 66.0389 8.51294 67.2922 10.5799C68.5668 12.6469 69.4909 14.8311 70.0645 17.1324C70.638 19.4338 70.9248 21.8097 70.9248 24.2603C70.9248 26.7534 70.638 29.1613 70.0645 31.484C69.5121 33.7854 68.6305 35.9802 67.4197 38.0685C66.2301 40.1355 64.7643 41.9361 63.0223 43.4703C61.2804 45.0046 59.1454 46.2298 56.6175 47.1461C54.0895 48.0411 51.3173 48.4886 48.3007 48.4886C47.4085 48.4886 45.7303 48.4247 43.2661 48.2968C40.8231 48.1903 38.6563 48.137 36.7656 48.137C35.8734 48.137 34.79 48.1583 33.5154 48.2009C32.2408 48.2435 30.7219 48.2968 28.9587 48.3607C27.1955 48.4247 25.7722 48.4673 24.6888 48.4886C24.1153 48.1476 23.6904 47.4658 23.4142 46.4429C23.1381 45.4201 23 44.3653 23 43.2785C23 42.7671 23.3505 42.3836 24.0515 42.1279C24.7526 41.8721 25.5917 41.7443 26.5689 41.7443C27.3974 41.7443 27.9391 41.5738 28.194 41.2329C28.4489 40.8706 28.5764 40.3699 28.5764 39.7306V8.85388C28.5764 8.21461 28.4489 7.72451 28.194 7.38356C27.9391 7.02131 27.3974 6.84018 26.5689 6.84018C24.1896 6.84018 23 6.28615 23 5.17808C23 4.13394 23.1381 3.11111 23.4142 2.10959C23.6904 1.08676 24.1153 0.415525 24.6888 0.0958904Z" fill="white"/>
<path d="M75.3859 38.8676C74.3662 36.5236 73.8564 33.9132 73.8564 31.0365C73.8564 28.1598 74.3662 25.5601 75.3859 23.2374C76.4056 20.9148 77.7652 19.0396 79.4646 17.6119C81.1641 16.1629 83.0653 15.0548 85.1684 14.2877C87.2715 13.5205 89.4702 13.137 91.7645 13.137C94.0375 13.137 96.2256 13.5205 98.3286 14.2877C100.432 15.0548 102.322 16.1629 104.001 17.6119C105.7 19.0396 107.06 20.9148 108.079 23.2374C109.099 25.5601 109.609 28.1598 109.609 31.0365C109.609 33.9132 109.099 36.5236 108.079 38.8676C107.06 41.1903 105.7 43.0761 104.001 44.5251C102.322 45.9741 100.432 47.0822 98.3286 47.8493C96.2256 48.6164 94.0375 49 91.7645 49C89.4702 49 87.2715 48.6164 85.1684 47.8493C83.0653 47.0822 81.1641 45.9741 79.4646 44.5251C77.7652 43.0761 76.4056 41.1903 75.3859 38.8676ZM84.4037 21.863C82.3431 24.0578 81.3128 27.1157 81.3128 31.0365C81.3128 34.9574 82.3431 38.0259 84.4037 40.242C86.4643 42.4368 88.8966 43.5342 91.7007 43.5342C93.0391 43.5342 94.3243 43.2679 95.5564 42.7352C96.7885 42.2024 97.8932 41.4353 98.8703 40.4338C99.8688 39.411 100.665 38.0898 101.26 36.4703C101.855 34.8508 102.152 33.0396 102.152 31.0365C102.152 29.0335 101.855 27.2222 101.26 25.6027C100.665 23.9833 99.8688 22.6728 98.8703 21.6712C97.8932 20.6697 96.7885 19.9026 95.5564 19.3699C94.3243 18.8371 93.0391 18.5708 91.7007 18.5708C88.8966 18.5708 86.4643 19.6682 84.4037 21.863Z" fill="white"/>
<path d="M142.525 21.6712C142.525 22.9285 142.079 23.9939 141.187 24.8676C140.316 25.7412 138.935 26.1781 137.044 26.1781C136.598 26.1781 136.322 26.0822 136.216 25.8904C136.131 25.6773 136.046 25.1339 135.961 24.2603L135.483 19.6895C135.334 19.583 135.122 19.4658 134.846 19.3379C134.591 19.1887 133.996 18.997 133.061 18.7626C132.148 18.5068 131.181 18.379 130.162 18.379C126.933 18.379 124.32 19.6362 122.323 22.1507C120.347 24.6438 119.359 27.6164 119.359 31.0685C119.359 34.7976 120.326 37.7062 122.259 39.7945C124.192 41.8828 126.986 42.9269 130.64 42.9269C132.339 42.9269 134.187 42.5647 136.184 41.8402C138.202 41.1157 139.849 40.1887 141.123 39.0594C142.334 40.4871 142.94 41.8508 142.94 43.1507C142.94 44.2161 142.313 45.207 141.059 46.1233C139.806 47.0396 138.192 47.7428 136.216 48.2329C134.262 48.7443 132.222 49 130.098 49C127.634 49 125.308 48.6164 123.12 47.8493C120.953 47.0609 119.03 45.9315 117.352 44.4612C115.674 42.9696 114.346 41.0518 113.369 38.7078C112.392 36.3425 111.903 33.6788 111.903 30.7169C111.903 27.968 112.413 25.4642 113.433 23.2055C114.474 20.9254 115.844 19.0715 117.543 17.6438C119.243 16.1948 121.144 15.0868 123.247 14.3196C125.371 13.5312 127.549 13.137 129.779 13.137C132.052 13.137 134.028 13.3714 135.706 13.8402C137.406 14.2877 138.733 14.9163 139.689 15.726C140.666 16.5358 141.378 17.4414 141.824 18.4429C142.292 19.4231 142.525 20.4992 142.525 21.6712Z" fill="white"/>
<path d="M147.974 48.4886C147.401 48.1476 146.976 47.4658 146.7 46.4429C146.423 45.4201 146.285 44.3653 146.285 43.2785C146.285 42.7671 146.636 42.3836 147.337 42.1279C148.038 41.8721 148.877 41.7443 149.854 41.7443C150.683 41.7443 151.224 41.5738 151.479 41.2329C151.734 40.8706 151.862 40.3699 151.862 39.7306V8.85388C151.862 8.21461 151.734 7.72451 151.479 7.38356C151.224 7.02131 150.683 6.84018 149.854 6.84018C147.475 6.84018 146.285 6.28615 146.285 5.17808C146.285 4.13394 146.423 3.11111 146.7 2.10959C146.976 1.08676 147.401 0.415525 147.974 0.0958904C150.778 0.372907 154.687 0.511416 159.7 0.511416C161.549 0.511416 163.864 0.42618 166.647 0.255708C169.43 0.0852359 171.267 0 172.16 0C174.454 0 176.536 0.383562 178.405 1.15068C180.275 1.8965 181.783 2.89802 182.93 4.15525C184.077 5.41248 184.959 6.82953 185.575 8.40639C186.191 9.96195 186.499 11.5814 186.499 13.2648C186.499 14.9909 185.957 16.6849 184.874 18.347C183.812 20.0091 182.314 21.2237 180.381 21.9909C182.505 22.6514 184.3 23.6743 185.766 25.0594C187.232 26.4231 188.273 27.8935 188.889 29.4703C189.505 31.0259 189.813 32.656 189.813 34.3607C189.813 36.1507 189.43 37.8767 188.666 39.5388C187.922 41.2009 186.849 42.7032 185.447 44.0457C184.045 45.3881 182.218 46.4642 179.967 47.274C177.736 48.0837 175.251 48.4886 172.51 48.4886C172 48.4886 170.057 48.4247 166.679 48.2968C163.301 48.1903 160.38 48.137 157.916 48.137C155.346 48.137 152.032 48.2542 147.974 48.4886ZM171.522 25.3151H159.222V41.2648C159.222 42.0959 159.371 42.5114 159.669 42.5114H173.116C176.111 42.5114 178.469 41.6804 180.19 40.0183C181.91 38.3562 182.771 36.3957 182.771 34.137C182.771 31.7504 181.793 29.6834 179.839 27.9361C177.885 26.1887 175.112 25.3151 171.522 25.3151ZM159.222 20.2329H171.522C173.965 20.2329 175.898 19.5616 177.322 18.2192C178.745 16.8767 179.457 15.2998 179.457 13.4886C179.457 11.4429 178.841 9.66362 177.609 8.15069C176.376 6.63775 174.666 5.88128 172.478 5.88128H159.222V20.2329Z" fill="white"/>
<path d="M206.096 21.1918H219.352C222.007 21.1918 224.099 20.4566 225.629 18.9863C227.158 17.516 227.923 15.79 227.923 13.8082C227.923 11.656 227.116 9.80213 225.501 8.24658C223.908 6.66971 221.646 5.88128 218.714 5.88128H206.096V21.1918ZM194.847 0.0958904C197.652 0.372907 201.56 0.511416 206.574 0.511416C208.379 0.511416 210.631 0.42618 213.329 0.255708C216.048 0.0852359 217.843 0 218.714 0C221.391 0 223.802 0.394216 225.948 1.18265C228.114 1.94977 229.856 2.98326 231.173 4.28311C232.512 5.56164 233.531 7 234.232 8.59817C234.933 10.1963 235.284 11.8584 235.284 13.5845C235.284 14.6712 235.114 15.7686 234.774 16.8767C234.456 17.9635 233.946 19.0183 233.245 20.0411C232.544 21.0426 231.705 21.9483 230.727 22.758C229.771 23.5464 228.592 24.207 227.19 24.7397C225.81 25.2511 224.322 25.5388 222.729 25.6027C224.344 26.1355 225.725 27.0731 226.872 28.4155C228.019 29.7367 228.879 31.1537 229.453 32.6667C230.048 34.1583 230.589 35.6286 231.078 37.0776C231.588 38.5053 232.193 39.6986 232.894 40.6575C233.595 41.5951 234.456 42.0639 235.475 42.0639C238.492 42.0639 240 42.3409 240 42.895V44.0776C240 44.8021 239.947 45.3881 239.841 45.8356C239.734 46.2831 239.49 46.7626 239.108 47.274C238.725 47.7641 238.099 48.1263 237.228 48.3607C236.357 48.6164 235.231 48.7443 233.85 48.7443C232.491 48.7443 231.29 48.5205 230.249 48.0731C229.23 47.6043 228.38 46.9863 227.7 46.2192C227.042 45.4307 226.457 44.5251 225.948 43.5023C225.438 42.4795 224.97 41.3927 224.546 40.242C224.142 39.0913 223.728 37.93 223.303 36.758C222.899 35.586 222.4 34.446 221.805 33.3379C221.232 32.2085 220.562 31.1963 219.798 30.3014C219.054 29.3851 218.088 28.5967 216.898 27.9361C215.73 27.2755 214.381 26.828 212.851 26.5936H206.096V39.6667C206.096 39.9863 206.106 40.242 206.128 40.4338C206.17 40.6043 206.244 40.8067 206.351 41.0411C206.478 41.2755 206.691 41.4566 206.988 41.5845C207.285 41.691 207.668 41.7443 208.135 41.7443C209.112 41.7443 209.951 41.8721 210.652 42.1279C211.353 42.3836 211.704 42.7671 211.704 43.2785C211.704 46.1126 211.353 47.8493 210.652 48.4886C207.466 48.2542 204.736 48.137 202.463 48.137C200.509 48.137 197.97 48.2542 194.847 48.4886C194.274 48.1476 193.849 47.4658 193.573 46.4429C193.297 45.4201 193.159 44.3653 193.159 43.2785C193.159 42.7671 193.509 42.3836 194.21 42.1279C194.911 41.8721 195.75 41.7443 196.727 41.7443C197.556 41.7443 198.098 41.5738 198.353 41.2329C198.607 40.8706 198.735 40.3699 198.735 39.7306V8.85388C198.735 8.21461 198.607 7.72451 198.353 7.38356C198.098 7.02131 197.556 6.84018 196.727 6.84018C194.348 6.84018 193.159 6.28615 193.159 5.17808C193.159 4.13394 193.297 3.11111 193.573 2.10959C193.849 1.08676 194.274 0.415525 194.847 0.0958904Z" fill="white"/>
</svg>
