<svg width="103" height="55" viewBox="0 0 103 55" fill="none" xmlns="http://www.w3.org/2000/svg">
<path d="M34.544 16.692C34.544 7.47302 42.014 0 51.234 0L51.233 0.00292969C60.452 0.00292969 67.925 7.47498 67.925 16.693C67.925 23.848 63.421 29.95 57.095 32.323L53.248 22.066C54.5047 21.5923 55.5554 20.6929 56.2174 19.5243C56.8794 18.3558 57.1107 16.9922 56.8711 15.6708C56.6314 14.3492 55.936 13.1537 54.9058 12.2921C53.8757 11.4304 52.576 10.9573 51.233 10.955C49.8904 10.9576 48.5912 11.4309 47.5614 12.2924C46.5316 13.1539 45.8364 14.3491 45.5967 15.6702C45.357 16.9912 45.5879 18.3545 46.2494 19.5228C46.9108 20.6912 47.9609 21.5907 49.217 22.0649L45.374 32.322C39.048 29.948 34.544 23.847 34.544 16.692Z" fill="white"/>
<path fill-rule="evenodd" clip-rule="evenodd" d="M9.43201 40.797V44.203C9.43201 46.873 7.57201 48.652 4.716 48.652C1.86 48.652 0 46.87 0 44.198V40.793C0 38.123 1.86 36.343 4.716 36.343C7.57201 36.343 9.43201 38.151 9.43201 40.797ZM4.716 46.5599C6.026 46.5599 7.07401 45.4869 7.07401 44.203V40.797C7.07401 39.515 6.026 38.439 4.716 38.439C3.40601 38.439 2.358 39.514 2.358 40.797V44.203C2.358 45.486 3.38 46.5599 4.716 46.5599Z" fill="white"/>
<path fill-rule="evenodd" clip-rule="evenodd" d="M20.174 41.059V43.939L20.173 43.937C20.173 46.506 18.287 48.391 15.85 48.391C14.759 48.391 14.0466 47.9453 13.6445 47.6937C13.4865 47.5948 13.3763 47.526 13.31 47.526C13.19 47.526 13.11 47.63 13.11 47.814V54.024C13.11 54.207 13.031 54.287 12.848 54.287H11.014C10.832 54.287 10.752 54.208 10.752 54.025V36.865C10.752 36.682 10.831 36.6019 11.014 36.6019H12.575C12.757 36.6019 12.837 36.682 12.837 36.865V37.1799C12.837 37.365 12.916 37.47 13.021 37.47C13.1295 37.47 13.2782 37.3818 13.4807 37.2618C13.9124 37.0059 14.5886 36.605 15.641 36.605C18.287 36.605 20.174 38.413 20.174 41.059ZM15.457 46.297C16.794 46.297 17.814 45.223 17.814 43.939L17.815 41.059C17.815 39.7739 16.793 38.699 15.457 38.699C14.147 38.699 13.099 39.775 13.099 41.059V43.939C13.099 45.223 14.157 46.297 15.457 46.297Z" fill="white"/>
<path fill-rule="evenodd" clip-rule="evenodd" d="M30.548 40.795V42.629L30.55 42.6329C30.5575 42.6689 30.5559 42.7061 30.5454 42.7412C30.5348 42.7764 30.5157 42.8083 30.4896 42.8341C30.4636 42.86 30.4315 42.8789 30.3963 42.8892C30.3611 42.8994 30.3239 42.9008 30.288 42.8929H23.738C23.554 42.8929 23.476 42.972 23.476 43.155V44.199C23.476 45.4819 24.498 46.556 25.834 46.556C26.462 46.556 26.986 46.3199 27.274 45.98C27.483 45.7336 27.6473 45.5215 27.7792 45.3511C28.0116 45.0509 28.1439 44.88 28.244 44.88C28.296 44.88 28.349 44.906 28.401 44.932L30.051 45.772C30.156 45.825 30.209 45.877 30.209 45.955C30.209 46.14 29.894 46.822 29.109 47.5549C28.324 48.288 27.224 48.655 25.834 48.655C22.978 48.655 21.118 46.873 21.118 44.2009V40.795C21.118 38.411 23.213 36.3409 25.833 36.3409C28.453 36.3409 30.548 38.411 30.548 40.795ZM23.476 40.665C23.476 40.954 23.502 41.059 23.738 41.059H27.93C28.166 41.059 28.192 40.927 28.193 40.6119C28.193 39.486 27.066 38.438 25.836 38.438C24.576 38.438 23.476 39.5129 23.476 40.665Z" fill="white"/>
<path d="M39.012 48.392H40.845L40.847 48.3929C40.8831 48.4006 40.9206 48.399 40.9559 48.3884C40.9912 48.3778 41.0233 48.3584 41.0492 48.3322C41.0751 48.3058 41.094 48.2734 41.1041 48.2379C41.1142 48.2024 41.1152 48.1649 41.107 48.129V41.056C41.107 38.412 39.221 36.6019 36.575 36.6019C35.5226 36.6019 34.8464 37.0029 34.4147 37.2589C34.2122 37.3789 34.0635 37.467 33.955 37.467C33.85 37.467 33.772 37.3619 33.772 37.179V36.865C33.772 36.682 33.693 36.6019 33.51 36.6019H31.938C31.756 36.6019 31.676 36.681 31.676 36.865V48.13C31.676 48.314 31.754 48.392 31.938 48.392H33.772C33.808 48.3999 33.8455 48.3986 33.8809 48.3882C33.9163 48.3778 33.9486 48.3588 33.9747 48.3326C34.0008 48.3065 34.0199 48.2743 34.0302 48.2389C34.0382 48.2115 34.0408 48.183 34.038 48.1549C34.0371 48.1466 34.0358 48.1383 34.034 48.13V41.057C34.034 39.771 35.092 38.697 36.392 38.697C37.728 38.697 38.75 39.772 38.75 41.057V48.13C38.7421 48.166 38.7434 48.2035 38.7538 48.2389C38.7641 48.2743 38.7832 48.3065 38.8093 48.3326C38.8354 48.3588 38.8677 48.3778 38.9031 48.3882C38.9385 48.3986 38.976 48.3999 39.012 48.392Z" fill="white"/>
<path d="M50.277 41.6329C48.469 41.24 47.657 40.7419 47.657 39.668L47.649 39.6639C47.649 38.592 48.461 37.9349 49.977 37.939H50.789C51.968 37.939 52.57 38.567 53.303 39.3519C53.373 39.432 53.423 39.484 53.503 39.484C53.53 39.484 53.556 39.484 53.608 39.458L54.604 38.9609C54.709 38.908 54.787 38.858 54.787 38.778C54.787 37.991 53.163 36.551 50.779 36.551H49.967C47.53 36.551 45.932 38.041 45.932 40.191C45.932 42.4696 47.5431 42.8032 50.5144 43.4187L50.622 43.441C52.378 43.807 53.19 44.3829 53.19 45.353C53.19 46.428 52.257 47.266 50.79 47.266H49.978C48.788 47.266 48.2501 46.6577 47.6358 45.9631C47.5878 45.9088 47.5393 45.854 47.49 45.799C47.42 45.7209 47.37 45.6689 47.29 45.6689C47.264 45.6689 47.212 45.6689 47.16 45.6949L46.138 46.192C46.007 46.245 45.954 46.297 45.954 46.375C45.954 47.188 47.552 48.655 49.989 48.655H50.801C53.342 48.655 54.967 47.11 54.967 44.8829C54.967 42.681 53.29 42.288 50.277 41.6329Z" fill="white"/>
<path fill-rule="evenodd" clip-rule="evenodd" d="M65.207 40.822V44.358L65.209 44.3569C65.209 46.9249 63.401 48.655 60.623 48.655C57.845 48.655 56.09 46.952 56.09 44.358V40.822C56.09 38.229 57.846 36.552 60.623 36.552C63.4 36.552 65.207 38.28 65.207 40.822ZM60.624 47.162C62.195 47.162 63.427 45.8779 63.427 44.358V40.822C63.427 39.329 62.194 38.045 60.624 38.045C59.027 38.045 57.847 39.276 57.847 40.822V44.358C57.847 45.8779 59.053 47.162 60.624 47.162Z" fill="white"/>
<path d="M74.457 48.392H75.427L75.429 48.385C75.4651 48.3926 75.5025 48.391 75.5379 48.3804C75.5651 48.3722 75.5905 48.3589 75.6125 48.3411C75.619 48.3358 75.6253 48.3301 75.6312 48.3241C75.6571 48.2979 75.676 48.2654 75.6861 48.23C75.6962 48.1945 75.6972 48.157 75.689 48.121V37.0649C75.6938 37.0431 75.6952 37.0208 75.6933 36.9987C75.692 36.9843 75.6893 36.97 75.6852 36.9561C75.6749 36.9207 75.6558 36.8884 75.6297 36.8623C75.6036 36.8362 75.5713 36.8171 75.5359 36.8068C75.5005 36.7964 75.463 36.795 75.427 36.803H74.195C74.159 36.795 74.1215 36.7964 74.0861 36.8068C74.0507 36.8171 74.0184 36.8362 73.9923 36.8623C73.9662 36.8884 73.9471 36.9207 73.9368 36.9561C73.9264 36.9915 73.9251 37.0289 73.933 37.0649V44.085C73.933 45.63 72.727 46.8879 71.103 46.8879C69.557 46.8879 68.325 45.605 68.325 44.085V37.0649C68.3329 37.0289 68.3316 36.9915 68.3212 36.9561C68.3109 36.9207 68.2918 36.8884 68.2657 36.8623C68.2552 36.8519 68.2439 36.8427 68.2317 36.8346C68.2133 36.8224 68.1932 36.813 68.1719 36.8068C68.1365 36.7964 68.099 36.795 68.063 36.803H66.833C66.65 36.803 66.57 36.882 66.57 37.0649V44.095C66.57 46.637 68.456 48.392 70.84 48.392C71.715 48.392 72.49 48.104 73.015 47.6069C73.1681 47.4548 73.2992 47.3079 73.4143 47.1787C73.6548 46.9091 73.8261 46.717 73.985 46.717C74.091 46.717 74.195 46.822 74.195 47.005V48.13C74.195 48.314 74.274 48.392 74.457 48.392Z" fill="white"/>
<path d="M83.3077 38.6438C83.4346 38.6591 83.5415 38.672 83.627 38.672L83.615 38.656C83.798 38.656 83.848 38.606 83.852 38.392V37.0549C83.8599 37.0189 83.8586 36.9814 83.8482 36.946C83.8379 36.9106 83.8188 36.8784 83.7927 36.8523C83.7666 36.8262 83.7343 36.8071 83.6989 36.7968C83.6635 36.7864 83.626 36.785 83.59 36.793H82.62C82.1837 36.8217 81.7652 36.9762 81.415 37.238C80.994 37.5773 80.6775 37.8956 80.4304 38.1442C80.124 38.4523 79.9244 38.653 79.765 38.653C79.67 38.653 79.565 38.549 79.565 38.365V37.0649C79.569 37.0465 79.5707 37.0277 79.5699 37.0089C79.5692 36.9911 79.5663 36.9734 79.5612 36.9561C79.5509 36.9207 79.5318 36.8884 79.5057 36.8623C79.4796 36.8362 79.4473 36.8171 79.4119 36.8068C79.3765 36.7964 79.3391 36.795 79.303 36.803H78.333C78.297 36.7953 78.2597 36.7968 78.2244 36.8071C78.1891 36.8176 78.1571 36.8368 78.1311 36.8628C78.1155 36.8785 78.1024 36.8964 78.0921 36.9158C78.0854 36.9287 78.0799 36.9423 78.0758 36.9564C78.0655 36.9917 78.0642 37.0291 78.072 37.0649V48.129C78.0641 48.165 78.0654 48.2025 78.0758 48.2379C78.0861 48.2733 78.1052 48.3055 78.1313 48.3317C78.1431 48.3434 78.1561 48.3538 78.17 48.3625C78.1871 48.3732 78.2056 48.3815 78.2251 48.3872C78.2605 48.3976 78.298 48.3989 78.334 48.391H79.592C79.6085 48.3947 79.6253 48.3964 79.6421 48.3961C79.6619 48.3958 79.6817 48.3928 79.7009 48.3872C79.7363 48.3768 79.7686 48.3578 79.7947 48.3317C79.807 48.3193 79.8177 48.3057 79.8268 48.2909C79.8369 48.2744 79.8448 48.2566 79.8502 48.2379C79.8606 48.2025 79.8619 48.165 79.854 48.129V41.344C79.854 39.798 81.034 38.594 82.631 38.594C82.8955 38.594 83.1227 38.6215 83.3077 38.6438Z" fill="white"/>
<path d="M88.342 48.652C90.804 48.652 92.402 47.1849 92.402 46.347L92.394 46.318C92.394 46.223 92.366 46.172 92.242 46.118L91.142 45.568C91.092 45.542 91.038 45.542 91.012 45.542C90.9189 45.542 90.7985 45.6744 90.6013 45.8912C90.4658 46.0402 90.294 46.229 90.07 46.442C89.598 46.8879 88.97 47.15 88.34 47.15C86.768 47.15 85.563 45.866 85.563 44.3459V40.8099C85.563 39.265 86.742 38.033 88.34 38.033C89.3524 38.033 89.8755 38.5453 90.493 39.1501C90.6014 39.2563 90.7127 39.3654 90.83 39.475C90.8728 39.5167 90.9076 39.5436 90.9427 39.5596C90.9731 39.5734 91.0038 39.579 91.04 39.579C91.065 39.579 91.093 39.579 91.145 39.553L92.245 39.0029C92.349 38.96 92.429 38.881 92.429 38.803C92.429 37.939 90.779 36.549 88.342 36.549C85.565 36.549 83.809 38.225 83.809 40.819V44.355C83.809 46.95 85.565 48.652 88.342 48.652Z" fill="white"/>
<path fill-rule="evenodd" clip-rule="evenodd" d="M102.463 40.821V42.4189L102.466 42.4349C102.466 42.618 102.389 42.6949 102.202 42.703H95.364C95.35 42.7 95.3357 42.6982 95.3215 42.698C95.2991 42.6975 95.2767 42.7004 95.2551 42.7068C95.2197 42.7172 95.1874 42.7362 95.1613 42.7623C95.1461 42.7776 95.1333 42.7949 95.1231 42.8137C95.1159 42.8271 95.1101 42.8413 95.1058 42.8561C95.0954 42.8915 95.0941 42.929 95.102 42.965V44.38C95.102 45.9 96.307 47.184 97.879 47.184C98.509 47.184 99.139 46.923 99.609 46.476C99.8232 46.2688 99.9896 46.0867 100.122 45.9414C100.331 45.7131 100.456 45.5759 100.553 45.5759C100.579 45.5759 100.631 45.5759 100.683 45.6019L101.783 46.152C101.914 46.194 101.94 46.2469 101.94 46.3519C101.94 47.189 100.343 48.656 97.88 48.656C95.103 48.656 93.348 46.953 93.348 44.359V40.823C93.348 39.853 93.792 38.7789 94.578 37.941C95.441 37.0229 96.542 36.551 97.878 36.551C100.419 36.551 102.463 38.568 102.463 40.821ZM100.675 41.2959C100.686 41.2605 100.687 41.223 100.679 41.187V40.821C100.679 39.328 99.448 38.0439 97.876 38.0439C96.279 38.0439 95.099 39.275 95.099 40.821V41.187C95.099 41.369 95.178 41.449 95.361 41.449H100.417C100.436 41.4532 100.456 41.4548 100.475 41.4537C100.492 41.4529 100.509 41.4501 100.526 41.4452C100.561 41.4348 100.594 41.4158 100.62 41.3896C100.646 41.3635 100.665 41.3313 100.675 41.2959Z" fill="white"/>
</svg>
