<svg width="626" height="214" viewBox="0 0 626 214" fill="none" xmlns="http://www.w3.org/2000/svg">
<path d="M63.7929 45.6385C63.7929 43.8715 65.2372 42.4386 67.0052 42.4386C68.774 42.4386 70.2035 43.8715 70.2035 45.6385V54.6783L67.0052 56.5312L63.7929 54.6783V45.6385Z" fill="white"/>
<path d="M63.3149 64.8731L67.007 62.7444L70.6921 64.8731V69.1252L67.007 71.2573L63.3149 69.1252V64.8731Z" fill="white"/>
<path d="M46.8995 74.9126L54.7285 70.3884L57.925 72.2379V75.9333L50.0995 80.4523C48.5772 81.3385 46.6159 80.8048 45.7217 79.2781C44.8426 77.7514 45.3602 75.7926 46.8995 74.9126Z" fill="white"/>
<path d="M76.0766 72.2431L79.2766 70.3902L87.0988 74.9127C88.6335 75.7935 89.16 77.7523 88.2783 79.2799C87.3867 80.8066 85.4272 81.3377 83.9005 80.4524L76.0766 75.9351V72.2431Z" fill="white"/>
<path fill-rule="evenodd" clip-rule="evenodd" d="M10.0956 67.0052C10.0956 35.5769 35.571 10.0936 66.993 10.0936C98.4311 10.0936 123.907 35.5769 123.906 67.0052C123.906 98.4372 98.4311 123.91 66.993 123.91C35.571 123.91 10.0956 98.4381 10.0956 67.0052ZM67.9422 13.7088C67.8118 13.3184 67.4379 13.0388 66.993 13.0388C66.5588 13.0388 66.1943 13.3184 66.0683 13.7088L61.3014 27.2118C61.2478 27.386 61.2124 27.5565 61.2124 27.7352C61.2124 28.2819 61.4958 28.7692 61.9121 29.0595C63.2101 29.9555 64.0582 31.4459 64.0582 33.1423C64.0582 34.6511 63.3876 36.0017 62.3326 36.9093C59.6364 39.2168 57.9251 42.6419 57.9251 46.4743V51.2899L34.2232 37.6003L31.2797 42.6811L57.9251 58.0719V61.7674L54.7268 63.6151L28.0866 48.2278L25.1448 53.3138L48.8554 67.0052L44.6905 69.413C41.3663 71.323 39.2515 74.5125 38.5975 77.9974C38.3528 79.3705 37.5141 80.6318 36.2071 81.3858C34.7438 82.2282 33.0203 82.2462 31.6007 81.569C31.1344 81.3475 30.5737 81.3471 30.0984 81.6213C29.9457 81.7143 29.8071 81.8276 29.6936 81.9616L20.3832 92.8368C20.1063 93.1424 20.0474 93.6078 20.268 93.9884C20.4744 94.3627 20.9119 94.5463 21.3202 94.4542L35.3958 91.8249C35.5575 91.7953 35.7333 91.7336 35.8861 91.6451C36.3613 91.3709 36.6441 90.8796 36.6852 90.3767C36.8094 88.8071 37.6757 87.3202 39.1507 86.4823C40.4567 85.7176 41.9631 85.6349 43.2737 86.0932V86.102C46.6238 87.2704 50.4415 87.035 53.7549 85.1162L57.9234 82.7171V110.1H63.793V79.3322L66.993 77.474L70.2035 79.3235V110.1H76.0697V82.7153L80.2416 85.1144C83.5595 87.0342 87.377 87.2713 90.7298 86.102V86.0915C92.0421 85.6341 93.5441 85.7185 94.8511 86.4823C96.318 87.3194 97.1844 88.8062 97.3148 90.3767C97.3568 90.8797 97.6342 91.3709 98.1139 91.6452C98.2712 91.7327 98.4397 91.7938 98.6095 91.8232L112.68 94.4543C113.093 94.5463 113.524 94.3636 113.744 93.9884C113.956 93.6079 113.897 93.1424 113.619 92.8369L104.312 81.9598C104.192 81.825 104.057 81.7125 103.9 81.6196C103.42 81.3454 102.871 81.3457 102.404 81.5673C100.981 82.2444 99.2599 82.2265 97.7876 81.3841C96.4896 80.6301 95.6572 79.3688 95.3955 77.9957C94.7469 74.5108 92.6336 71.3222 89.3112 69.4113L85.1428 67.0052L108.86 53.3139L105.922 48.2278L79.2767 63.6151L76.0696 61.7674V58.0719L102.724 42.6811L99.789 37.6003L76.0714 51.2899V46.4743C76.0714 42.6419 74.3652 39.2168 71.6761 36.9093C70.6032 36.0017 69.9453 34.6512 69.9453 33.1423C69.9453 31.4459 70.7925 29.9555 72.0897 29.0595C72.5104 28.7701 72.7754 28.2819 72.7754 27.7352C72.7754 27.5566 72.7584 27.386 72.7021 27.2118L67.9422 13.7088Z" fill="white"/>
<path fill-rule="evenodd" clip-rule="evenodd" d="M0 66.9948C0 30.0009 30.0045 0 66.993 0C104.006 0 134.001 30.0009 134 66.9948C134 103.993 104.006 134 66.993 134C30.0045 134 0 103.993 0 66.9948ZM131.151 66.9948C131.151 31.575 102.435 2.85623 66.993 2.85623C31.575 2.85623 2.85804 31.5759 2.85804 66.9948C2.85804 102.42 31.575 131.144 66.993 131.144C102.436 131.144 131.152 102.419 131.151 66.9948Z" fill="white"/>
<path d="M182.4 60.7L168.4 10.7H145.6L170.2 85.9V122.6H194.5V85.9L219.1 10.7H196.3L182.4 60.7Z" fill="white"/>
<path d="M300.2 10.7V122.6H321.2V51.5L333.5 122.6H347.5L360 51.5V122.6H381.1V10.7H349.9L340.6 64.5L331.4 10.7H300.2Z" fill="white"/>
<path d="M477 10.7V122.6H499.9V75.7H519.8V122.6H542.6V10.7H519.8V55.3H499.9V10.7H477Z" fill="white"/>
<path fill-rule="evenodd" clip-rule="evenodd" d="M267.5 10.7H237.2L217.3 122.6H240L243.8 96H260.9L264.7 122.6H287.5L267.5 10.7ZM252.3 36L258 75.7H246.7L252.3 36Z" fill="white"/>
<path fill-rule="evenodd" clip-rule="evenodd" d="M413.9 10.7H444.2L464.2 122.6H441.4L437.6 96H420.5L416.7 122.6H394L413.9 10.7ZM434.7 75.7L429 36L423.4 75.7H434.7Z" fill="white"/>
<path fill-rule="evenodd" clip-rule="evenodd" d="M575.5 10.7L555.6 122.6H578.3L582 96H599.1L602.9 122.6H625.7L605.7 10.7H575.5ZM590.6 36L596.3 75.7H585L590.6 36Z" fill="white"/>
<path d="M569.8 152.6C575.3 152.1 580.5 151.7 580.5 151.7C580.5 151.7 576.2 155 571.6 155.7C571.067 155.833 570.356 155.922 569.526 156.026L569.525 156.026C569.11 156.078 568.666 156.133 568.2 156.2L567.884 156.863C565.958 160.906 563.749 165.545 561 171.8L553.2 172.8C553.2 172.8 557.8 163.2 560.6 157.2C556.6 157.6 553.2 158 553.2 158C553.2 158 556.4 154.1 560.4 153.6C561 153.5 561.7 153.4 562.5 153.3C563.7 150.5 571.7 148.6 571.7 148.6C571.436 149.165 571.173 149.688 570.919 150.189C570.501 151.018 570.112 151.79 569.8 152.6Z" fill="white"/>
<path fill-rule="evenodd" clip-rule="evenodd" d="M353.1 169.6C357.4 169.6 360.4 170.6 362 172.6C363.6 174.6 363.5 177.3 361.7 180.6C359.6 184.6 357.7 187.9 352.8 190.5C347.8 193.1 343.1 194.3 337.1 194.3C332.7 194.3 329.8 193.3 328.3 191.2C326.8 189.2 327 186.5 328.7 183.2C330.7 179.3 334.9 175.1 339.8 172.5C344.8 170 348.8 169.6 353.1 169.6ZM345.7 174.6C343.4 175.7 340.4 178.6 338.6 182C335.1 188.7 337.9 191.1 340.5 190.9C344.4 190.6 347.4 188.1 349.8 184.4C351.8 181.3 353.2 178.6 353.1 176.3C353.2 174.2 351.3 171.9 345.7 174.6Z" fill="white"/>
<path d="M256.5 166.5C259.4 163.1 265.4 163.2 265.4 163.2L242.3 189.1L234.3 190L231.2 167.5C234.7 166.2 240.2 165.5 240.2 165.5L242.7 182.3C242.7 182.3 253.6 169.9 256.5 166.5Z" fill="white"/>
<path d="M252.4 185.3C273.7 187.4 289.4 180.6 287.4 175.4C286.4 172.9 283.8 171.6 277.4 169.6C273.4 168.3 279.6 164.4 292.1 164.9L294.3 162C294.3 162 281.5 162.1 273.2 164.9C266.9 167 263 171.2 267.9 173.1C269.336 173.657 270.67 174.102 271.865 174.501C274.746 175.463 276.822 176.157 277.6 177.5C279.7 181.1 268 183.4 255.4 182.3L252.4 185.3Z" fill="white"/>
<path fill-rule="evenodd" clip-rule="evenodd" d="M487.4 175C491 173.4 493.5 171.8 493.5 171.8L491 176.3C488.1 179.2 479.9 182.5 473 180.4C470.6 179.7 467.7 177.6 470.3 171.6C474.9 161.1 489.1 157.3 494 159.3C499.4 161.5 495.3 167.7 493.8 168.4C493 168.8 477.2 171.7 477.2 171.7C477.2 171.7 474.8 175.2 477.8 176.6C479.8 177.6 485 176 487.4 175ZM487.9 167C489.3 166.5 492.3 161.3 489.2 161.7C483.4 162.4 478.8 168.9 478.8 168.9C478.8 168.9 484.2 168.3 487.9 167Z" fill="white"/>
<path fill-rule="evenodd" clip-rule="evenodd" d="M225.1 182.4C225.1 182.4 221.9 184.2 217.1 186C213.9 187.2 206.9 188.9 204 187.8C199.6 186.1 202.3 182.1 202.3 182.1C202.3 182.1 223.2 179.5 224.9 178.5C226.8 177.4 231.4 170.6 223.5 168C216.3 165.7 197.2 169.9 192.8 182C190.3 188.9 194.7 191.4 198.3 192.3C208.3 194.9 219.2 191.1 222.7 187.7L225.1 182.4ZM217.1 170.7C221.4 170.3 218.2 176.4 216.3 176.8C212 177.7 203.9 178.5 203.9 178.5C203.9 178.5 209.2 171.5 217.1 170.7Z" fill="white"/>
<path fill-rule="evenodd" clip-rule="evenodd" d="M518.9 169.8C517 174.1 519 174 523 172.9L521.8 174.7C521.8 174.7 519.8 176.1 516.8 176.3C511.6 176.7 512.6 172 512.6 172C512.6 172 505.4 178.9 500.4 177.8C497.1 177.1 496.4 173 499.9 167.5C502.4 163.5 507.8 158.4 518.1 157.3C521.3 157 526 156.6 526 156.6C526 156.6 520.2 166.9 518.9 169.8ZM506.4 166.6C504.8 169.1 504.1 172.7 506.6 172.2C514.1 170.8 518.2 160.7 518.2 160.7C513.4 160.9 509.2 162.3 506.4 166.6Z" fill="white"/>
<path d="M408.8 165.1C415.9 164.5 415.7 166.7 415.7 166.7C423.6 162 431.1 163.7 431.1 163.7C431.1 163.7 429.2 165.5 426.3 166.9C424.45 167.825 422.868 167.784 421.358 167.746C418.95 167.684 416.727 167.628 413.9 171.5C411.8 174.4 405.9 186.1 405.9 186.1L396.8 187.4C401.1 179.6 408.8 165.1 408.8 165.1Z" fill="white"/>
<path d="M539.6 157.8C539.6 157.8 540.6 155 533.8 155.9C533.8 155.9 529 165.9 524.3 175.5L532.1 174.5C532.1 174.5 535.7 165.3 537.7 162.4C540.405 158.527 542.58 158.509 544.924 158.489C546.393 158.476 547.928 158.463 549.7 157.5C552.5 156 554.4 154.2 554.4 154.2C554.4 154.2 547.2 152.9 539.6 157.8Z" fill="white"/>
<path d="M373.2 190.3C363.6 190.4 364.6 185.4 365.8 182.5C366.63 180.378 368.738 176.724 370.551 173.579L370.551 173.578C370.703 173.315 370.853 173.055 371 172.8C371 172.8 372.6 170.5 374.6 169.3C376.5 168.1 382.1 167.2 382.1 167.2C382.1 167.2 377.2 175.8 375.2 180.6C373.6 184.4 372.8 186.9 378.2 186.3C381.9 185.8 383.6 184.1 386.4 179.6C387.969 177.134 389.65 173.942 390.9 171.568L390.901 171.566C391.324 170.764 391.697 170.056 392 169.5C393 167.4 396.2 166.3 401.9 166C401.9 166 396.6 175.5 394 180.3C390.3 187.1 381.8 190.2 373.2 190.3Z" fill="white"/>
<path fill-rule="evenodd" clip-rule="evenodd" d="M310.986 199.332C310.134 200.74 309.273 202.163 308.4 203.6C370.7 198.8 591 175 591 175L579.4 178.5C579.4 178.5 324.9 205.9 293.7 210.2C293.7 210.2 298.7 202.8 305.5 192.8C295.004 193.643 277.26 195.747 257.845 198.05L257.844 198.05C231.2 201.21 201.411 204.743 182.9 205.9C176.5 206.3 171.4 205.9 166.8 203.9C164.697 202.954 158.339 199.051 151.589 194.907C145.498 191.169 139.089 187.234 135.2 185.1C133.332 188.398 131.49 191.662 129.787 194.678C125.657 201.996 122.35 207.855 121.5 209.2C119 213.2 102.1 213.9 102.1 213.9C113.7 197.4 132.4 168.8 137.6 160.8C128.7 162.1 119.9 163.7 112.6 165.2C106.7 166.4 102.3 162.9 102.3 162.9C102.3 162.9 161.3 151.7 180.5 154.7C205.3 158.6 193.2 172.6 175 179.5C163.9 183.7 157.3 184.6 157.3 184.6C159.562 185.852 161.432 187.137 163.379 188.474C166.252 190.447 169.291 192.535 174 194.8C185.1 200.1 196.1 200.6 201.2 200.4C211.633 200.027 285.143 192.193 304.301 190.151C305.71 190.001 306.826 189.882 307.6 189.8C307.709 189.648 307.822 189.491 307.938 189.331L307.939 189.33C308.356 188.752 308.809 188.126 309.2 187.5C309.6 186.9 310.2 186 309.9 185.1C307.7 179.1 302.4 162.3 302.4 162.3C305 161.1 310 160.9 310 160.9C311.1 165.6 315.3 178.5 315.3 178.5L327.7 160.7C329.2 158.6 339.3 158.3 339.3 158.3C328.235 170.828 320.097 184.276 310.986 199.332ZM173.8 159.8C168.7 158.3 159.9 158.4 150 159.4C147.1 164.2 141.2 174.7 135.5 184.9C138 184.4 151.6 181.6 162 177.3C172 173.1 187.1 163.8 173.8 159.8Z" fill="white"/>
<path d="M467.4 152.1C465.6 155.1 463.4 159.7 461.2 164.4L446.6 166.2C449.1 160.4 451.3 155.4 452.9 151.8C452.9 151.8 449.5 152 446.7 152.6C443.7 153.2 442.1 153.9 442.1 153.9C442.1 153.9 443.9 154.6 444.4 155.7C439.2 165.4 429.6 185.8 429.6 185.8L438.3 184.9C439.772 181.7 441.203 178.418 442.567 175.291L442.568 175.287C443.335 173.529 444.08 171.819 444.8 170.2C448.226 169.479 454.008 168.676 458.264 168.086C458.729 168.021 459.176 167.959 459.6 167.9C456 175.9 452.8 183.4 452.8 183.4L460.5 182.6C467.5 165 474 152.9 475.9 149.7C475.9 149.7 469.1 149.2 467.4 152.1Z" fill="white"/>
</svg>
