<svg width="229" height="36" viewBox="0 0 229 36" fill="none" xmlns="http://www.w3.org/2000/svg">
<path fill-rule="evenodd" clip-rule="evenodd" d="M60 2V33C61.2232 33 62.5397 33.0492 63.908 33.1003C70.0809 33.331 77.3072 33.6011 81.7716 29.5702C87.3385 24.5439 85.4572 14.5697 78.9846 11.3179C74.1554 8.8918 68.8046 10.477 64 12V2H60ZM66.959 28.0213C68.9774 28.0542 71.0212 28.0875 72.9992 27.8111C74.2608 27.6347 75.7661 27.4084 76.8519 26.6822C87.4335 19.605 72 8.99994 64.3179 17.105C63.8077 18.9315 63.8819 24.0238 63.9524 26.0144C63.9764 26.693 64.0001 27.3597 64 28.0001C64.6466 28 66.299 28.0106 66.954 28.0213L66.9562 28.0213L66.959 28.0213Z" fill="white"/>
<path d="M148.847 7.71654C148.924 5.77623 149 3.85357 149 2H153V10H161V15H153C153.058 21.4392 154.523 25.7779 161 28V33C147.958 30.1555 148.414 18.6552 148.847 7.71654Z" fill="white"/>
<path fill-rule="evenodd" clip-rule="evenodd" d="M90 33V2H94V12C94.3405 11.9099 94.6809 11.8186 95.0211 11.7274L95.0224 11.727C100.018 10.3875 104.986 9.05509 109.957 11.5725C117.496 15.3907 117.528 25.7034 110.956 30.436C106.49 33.6523 99.981 33.3723 94.2245 33.1246C92.7515 33.0612 91.3277 33 90 33ZM96.9544 28.021C96.2992 28.0105 94.6468 28 94 28C94.0014 27.5437 93.9943 27.0791 93.9872 26.61C93.9588 24.7351 93.9293 18.7891 94.434 17.0139C105.5 8.99994 117.997 19.9635 106.941 26.6821C105.792 27.3807 104.308 27.629 103 27.811C101.019 28.0864 98.9743 28.0535 96.9544 28.021Z" fill="white"/>
<path fill-rule="evenodd" clip-rule="evenodd" d="M128.001 10.6527C113.066 15.3347 121.501 36.2544 135.999 32.0531C151.057 27.6895 142.505 6.10554 128.001 10.6527ZM129.109 15.7461C121.134 19.0513 127.563 29.8726 134.891 26.9506C143.046 23.6988 136.851 12.5375 129.109 15.7461Z" fill="white"/>
<path fill-rule="evenodd" clip-rule="evenodd" d="M53 33C50.2614 32.7893 49.578 32.6975 49 30C44.6802 32.4198 39.9078 34.0044 35.0039 32.1065C28.23 29.4848 25.4653 19.8534 30.4336 14.2276C34.7263 9.36699 42.6157 9.65939 49.1603 9.90195C50.5121 9.95205 51.8065 10 53 10C53 16.9818 53 24.5 53 33ZM45.6211 14.9779C46.416 14.989 48.2097 15 49 15C48.9962 15.3234 48.9992 17.6695 49 18C49.0042 19.6847 48.9978 20.105 48.9978 22.3638C48.4738 23.7134 46.1688 26.1264 45 27.0144C33 33.1065 27.9342 15.8118 40.0039 15.044C41.8644 14.9256 43.7463 14.9518 45.6211 14.9779Z" fill="white"/>
<path fill-rule="evenodd" clip-rule="evenodd" d="M0 33V4.00004C1.38375 4.00004 2.9601 3.89886 4.62266 3.79214C9.54329 3.47628 15.219 3.11196 18.8912 5.17904C26.078 9.22454 22.7383 17.9233 17 21C17.3076 21.4559 17.6167 21.9101 17.9255 22.3638C20.24 25.764 22.5356 29.1364 24 33C19.482 33.6024 17.68 30.7837 15.6909 27.6722C14.378 25.6185 12.9836 23.4372 10.6728 22.0278C8.97244 20.9907 6.90407 20.9965 4.94914 21.002C4.62914 21.0029 4.31181 21.0037 4 21V33H0ZM5 8.99994V15.9999C5.72449 15.9999 6.58696 16.0568 7.5167 16.1182C10.5927 16.3211 14.4049 16.5726 16.392 14.9729C18.2675 13.463 17.7399 10.6199 15.6813 9.60334C13.5255 8.53868 10.4047 8.72513 7.65002 8.8897C6.70579 8.94611 5.80458 8.99994 5 8.99994Z" fill="white"/>
<path d="M180 35.0778C187 30.2444 206.3 20.2778 227.5 19.0778C229.667 18.0778 230.8 15.0778 218 11.0778C221.6 12.6778 222.833 14.0778 223 14.5778C216.833 14.7444 200.8 17.7778 186 28.5778C188 24.0778 195.5 19.0778 201 15.0778C189 18.6778 182 29.9111 180 35.0778Z" fill="white"/>
<path d="M184 12.0778C189.5 12.7444 207.5 12.5778 213.5 4.57776C207.9 6.17776 192.833 9.24443 186 10.5778C184.833 10.7444 182.8 11.2778 184 12.0778Z" fill="white"/>
<path d="M222 10.5778C223 9.4111 224.7 6.57776 223.5 4.57776C224.333 4.24443 226.5 3.87776 228.5 5.07776C228.9 9.07776 224.333 10.4111 222 10.5778Z" fill="white"/>
<path d="M209 3.57771C195.5 4.57776 193 2.07771 186.5 0.0777088C189.5 -0.422291 206 1.57771 209 3.57771Z" fill="white"/>
</svg>
