<svg width="249" height="49" viewBox="0 0 249 49" fill="none" xmlns="http://www.w3.org/2000/svg">
<path d="M51 0H63.6874C67.1186 0 69.7519 0.268411 71.5871 0.805234C73.4424 1.34206 74.8288 2.11747 75.7465 3.13147C76.6841 4.14547 77.3124 5.37817 77.6316 6.82958C77.9708 8.26111 78.1403 10.4879 78.1403 13.51V17.7152C78.1403 20.7969 77.8211 23.0436 77.1828 24.4553C76.5444 25.8669 75.3674 26.9505 73.6518 27.706C71.9562 28.4616 69.7319 28.8393 66.979 28.8393H63.5977V48.2842H51V0ZM63.5977 8.26111V20.5484C63.9567 20.5683 64.2659 20.5782 64.5253 20.5782C65.6823 20.5782 66.4803 20.2999 66.9191 19.7432C67.3779 19.1666 67.6074 17.9836 67.6074 16.1942V12.2276C67.6074 10.5774 67.348 9.50375 66.8294 9.0067C66.3107 8.50964 65.2335 8.26111 63.5977 8.26111Z" fill="white"/>
<path d="M93.4909 8.70846L93.0121 13.8977C94.7676 10.1798 97.3111 8.2114 100.643 7.9927V21.9203C98.4282 21.9203 96.8024 22.2185 95.7651 22.815C94.7277 23.4114 94.0894 24.2465 93.85 25.3201C93.6106 26.3739 93.4909 28.8194 93.4909 32.6567V48.2842H81.4019V8.70846H93.4909Z" fill="white"/>
<path d="M130.715 22.6062V32.2988C130.715 35.8578 130.536 38.4723 130.177 40.1424C129.818 41.7927 129.05 43.3435 127.873 44.7949C126.696 46.2264 125.18 47.2901 123.324 47.986C121.489 48.662 119.374 49 116.981 49C114.307 49 112.043 48.7117 110.188 48.1351C108.333 47.5387 106.887 46.6539 105.849 45.4808C104.832 44.2879 104.104 42.8564 103.665 41.1862C103.226 39.4962 103.006 36.9712 103.006 33.6111V23.4711C103.006 19.7929 103.405 16.9199 104.203 14.8521C105.001 12.7843 106.438 11.1242 108.512 9.87158C110.587 8.61899 113.24 7.9927 116.472 7.9927C119.185 7.9927 121.509 8.40028 123.444 9.21546C125.399 10.0108 126.905 11.0546 127.962 12.3469C129.02 13.6393 129.738 14.9714 130.117 16.3433C130.516 17.7152 130.715 19.8028 130.715 22.6062ZM118.626 19.6239C118.626 17.5959 118.517 16.3234 118.297 15.8065C118.078 15.2696 117.609 15.0012 116.891 15.0012C116.173 15.0012 115.694 15.2696 115.455 15.8065C115.215 16.3234 115.095 17.5959 115.095 19.6239V37.4881C115.095 39.3571 115.215 40.5798 115.455 41.1564C115.694 41.7131 116.163 41.9915 116.861 41.9915C117.579 41.9915 118.048 41.733 118.267 41.2161C118.507 40.6991 118.626 39.5857 118.626 37.8758V19.6239Z" fill="white"/>
<path d="M167.67 0L174.882 48.2842H161.985L161.357 39.6056H156.838L156.09 48.2842H143.044L149.447 0H167.67ZM160.998 31.0463C160.359 25.5786 159.721 18.8286 159.082 10.7961C157.806 20.0215 157.008 26.7716 156.689 31.0463H160.998Z" fill="white"/>
<path d="M199 0V9.66281H191.519V48.2842H178.922V9.66281H171.471V0H199Z" fill="white"/>
</svg>
