<svg width="249" height="49" viewBox="0 0 249 49" fill="none" xmlns="http://www.w3.org/2000/svg">
<path d="M80.8703 49V13.6648H87.7186V49H80.8703ZM84.3288 8.21268C83.1378 8.21268 82.1148 7.81393 81.2597 7.01643C80.4199 6.2036 80 5.2374 80 4.11784C80 2.98294 80.4199 2.01674 81.2597 1.21925C82.1148 0.406416 83.1378 0 84.3288 0C85.5198 0 86.5352 0.406416 87.375 1.21925C88.2301 2.01674 88.6576 2.98294 88.6576 4.11784C88.6576 5.2374 88.2301 6.2036 87.375 7.01643C86.5352 7.81393 85.5198 8.21268 84.3288 8.21268Z" fill="white"/>
<path d="M141.402 13.6648L128.645 49H121.315L108.535 13.6648H115.887L124.797 40.8563H125.163L134.05 13.6648H141.402Z" fill="white"/>
<path d="M162.213 49V13.6648H169.061V49H162.213ZM165.671 8.21268C164.48 8.21268 163.457 7.81393 162.602 7.01643C161.762 6.2036 161.342 5.2374 161.342 4.11784C161.342 2.98294 161.762 2.01674 162.602 1.21925C163.457 0.406416 164.48 0 165.671 0C166.862 0 167.878 0.406416 168.717 1.21925C169.572 2.01674 170 2.98294 170 4.11784C170 5.2374 169.572 6.2036 168.717 7.01643C167.878 7.81393 166.862 8.21268 165.671 8.21268Z" fill="white"/>
</svg>
